<?xml version="1.0" encoding="UTF-8" standalone="no"?>
<!DOCTYPE svg PUBLIC "-//W3C//DTD SVG 1.1//EN"
 "http://www.w3.org/Graphics/SVG/1.1/DTD/svg11.dtd">
<!-- Generated by graphviz version 2.40.1 (20161225.0304)
 -->
<!-- Title: G Pages: 1 -->
<svg width="1412pt" height="198pt"
 viewBox="0.00 0.00 1412.00 198.00" xmlns="http://www.w3.org/2000/svg" xmlns:xlink="http://www.w3.org/1999/xlink">
<g id="graph0" class="graph" transform="scale(1 1) rotate(0) translate(4 194)">
<title>G</title>
<polygon fill="#ffffff" stroke="transparent" points="-4,4 -4,-194 1408,-194 1408,4 -4,4"/>
<!-- n_github_com_alajmo_mani -->
<g id="node1" class="node">
<title>n_github_com_alajmo_mani</title>
<g id="a_node1"><a xlink:href="https://pkg.go.dev/github.com/alajmo/mani" xlink:title="github.com/alajmo/mani\l7 / 87B\l" target="_graphviz">
<polygon fill="none" stroke="#91075a" stroke-width="2" stroke-opacity="0.698039" points="234,-82 90,-82 90,-46 234,-46 234,-82"/>
<text text-anchor="start" x="98" y="-67" font-family="Times,serif" font-size="10.00" fill="#000000">github.com/alajmo/mani</text>
<text text-anchor="start" x="98" y="-56" font-family="Times,serif" font-size="10.00" fill="#000000">7 / 87B</text>
</a>
</g>
</g>
<!-- n_github_com_alajmo_mani_cmd -->
<g id="node2" class="node">
<title>n_github_com_alajmo_mani_cmd</title>
<g id="a_node2"><a xlink:href="https://pkg.go.dev/github.com/alajmo/mani/cmd" xlink:title="github.com/alajmo/mani/cmd\l1833 / 58.6KB\l" target="_graphviz">
<polygon fill="none" stroke="#170791" stroke-width="2" stroke-opacity="0.698039" points="576,-82 432,-82 432,-46 576,-46 576,-82"/>
<text text-anchor="start" x="440" y="-67" font-family="Times,serif" font-size="10.00" fill="#000000">github.com/alajmo/mani/cmd</text>
<text text-anchor="start" x="440" y="-56" font-family="Times,serif" font-size="10.00" fill="#000000">1833 / 58.6KB</text>
</a>
</g>
</g>
<!-- n_github_com_alajmo_mani&#45;&gt;n_github_com_alajmo_mani_cmd -->
<g id="edge1" class="edge">
<title>n_github_com_alajmo_mani:e&#45;&gt;n_github_com_alajmo_mani_cmd</title>
<path fill="none" stroke="#170791" stroke-width="2" stroke-opacity="0.698039" d="M234,-64C296.9727,-64 368.207,-64 421.6902,-64"/>
<polygon fill="#170791" fill-opacity="0.698039" stroke="#170791" stroke-width="2" stroke-opacity="0.698039" points="421.8029,-67.5001 431.8028,-64 421.8028,-60.5001 421.8029,-67.5001"/>
</g>
<!-- n_github_com_alajmo_mani_core -->
<g id="node3" class="node">
<title>n_github_com_alajmo_mani_core</title>
<g id="a_node3"><a xlink:href="https://pkg.go.dev/github.com/alajmo/mani/core" xlink:title="github.com/alajmo/mani/core\l268 / 6.6KB\l" target="_graphviz">
<polygon fill="none" stroke="#073291" stroke-width="2" stroke-opacity="0.698039" points="1404,-78 1260,-78 1260,-42 1404,-42 1404,-78"/>
<text text-anchor="start" x="1268" y="-63" font-family="Times,serif" font-size="10.00" fill="#000000">github.com/alajmo/mani/core</text>
<text text-anchor="start" x="1268" y="-52" font-family="Times,serif" font-size="10.00" fill="#000000">268 / 6.6KB</text>
</a>
</g>
</g>
<!-- n_github_com_alajmo_mani_cmd&#45;&gt;n_github_com_alajmo_mani_core -->
<g id="edge2" class="edge">
<title>n_github_com_alajmo_mani_cmd:e&#45;&gt;n_github_com_alajmo_mani_core</title>
<path fill="none" stroke="#073291" stroke-width="2" stroke-opacity="0.698039" d="M576,-64C624.3465,-64 635.7977,-73.2689 684,-77 891.427,-93.0559 944.5288,-102.4738 1152,-87 1183.9922,-84.6139 1218.9187,-79.874 1249.4208,-75.0225"/>
<polygon fill="#073291" fill-opacity="0.698039" stroke="#073291" stroke-width="2" stroke-opacity="0.698039" points="1250.273,-78.4301 1259.5847,-73.3761 1249.1537,-71.5202 1250.273,-78.4301"/>
</g>
<!-- n_github_com_alajmo_mani_core_dao -->
<g id="node4" class="node">
<title>n_github_com_alajmo_mani_core_dao</title>
<g id="a_node4"><a xlink:href="https://pkg.go.dev/github.com/alajmo/mani/core/dao" xlink:title="github.com/alajmo/mani/core/dao\l1626 / 40.6KB\l" target="_graphviz">
<polygon fill="none" stroke="#07912e" stroke-width="2" stroke-opacity="0.698039" points="1152,-78 972,-78 972,-42 1152,-42 1152,-78"/>
<text text-anchor="start" x="980" y="-63" font-family="Times,serif" font-size="10.00" fill="#000000">github.com/alajmo/mani/core/dao</text>
<text text-anchor="start" x="980" y="-52" font-family="Times,serif" font-size="10.00" fill="#000000">1626 / 40.6KB</text>
</a>
</g>
</g>
<!-- n_github_com_alajmo_mani_cmd&#45;&gt;n_github_com_alajmo_mani_core_dao -->
<g id="edge3" class="edge">
<title>n_github_com_alajmo_mani_cmd:e&#45;&gt;n_github_com_alajmo_mani_core_dao</title>
<path fill="none" stroke="#07912e" stroke-width="2" stroke-opacity="0.698039" d="M576,-64C709.4462,-64 863.4963,-62.4734 961.7619,-61.3064"/>
<polygon fill="#07912e" fill-opacity="0.698039" stroke="#07912e" stroke-width="2" stroke-opacity="0.698039" points="962.0243,-64.8036 971.9816,-61.1839 961.9403,-57.8041 962.0243,-64.8036"/>
</g>
<!-- n_github_com_alajmo_mani_core_print -->
<g id="node5" class="node">
<title>n_github_com_alajmo_mani_core_print</title>
<g id="a_node5"><a xlink:href="https://pkg.go.dev/github.com/alajmo/mani/core/print" xlink:title="github.com/alajmo/mani/core/print\l542 / 11.9KB\l" target="_graphviz">
<polygon fill="none" stroke="#070f91" stroke-width="2" stroke-opacity="0.698039" points="864,-36 684,-36 684,0 864,0 864,-36"/>
<text text-anchor="start" x="692" y="-21" font-family="Times,serif" font-size="10.00" fill="#000000">github.com/alajmo/mani/core/print</text>
<text text-anchor="start" x="692" y="-10" font-family="Times,serif" font-size="10.00" fill="#000000">542 / 11.9KB</text>
</a>
</g>
</g>
<!-- n_github_com_alajmo_mani_cmd&#45;&gt;n_github_com_alajmo_mani_core_print -->
<g id="edge4" class="edge">
<title>n_github_com_alajmo_mani_cmd:e&#45;&gt;n_github_com_alajmo_mani_core_print</title>
<path fill="none" stroke="#070f91" stroke-width="2" stroke-opacity="0.698039" d="M576,-64C623.6615,-64 676.1413,-51.1974 715.0907,-39.1005"/>
<polygon fill="#070f91" fill-opacity="0.698039" stroke="#070f91" stroke-width="2" stroke-opacity="0.698039" points="716.2209,-42.4138 724.6903,-36.0484 714.0999,-35.7429 716.2209,-42.4138"/>
</g>
<!-- n_github_com_alajmo_mani_core_dao&#45;&gt;n_github_com_alajmo_mani_core -->
<g id="edge5" class="edge">
<title>n_github_com_alajmo_mani_core_dao:e&#45;&gt;n_github_com_alajmo_mani_core</title>
<path fill="none" stroke="#073291" stroke-width="2" stroke-opacity="0.698039" d="M1152,-60C1183.8665,-60 1218.9063,-60 1249.5352,-60"/>
<polygon fill="#073291" fill-opacity="0.698039" stroke="#073291" stroke-width="2" stroke-opacity="0.698039" points="1249.7423,-63.5001 1259.7423,-60 1249.7423,-56.5001 1249.7423,-63.5001"/>
</g>
<!-- n_github_com_alajmo_mani_core_print&#45;&gt;n_github_com_alajmo_mani_core -->
<g id="edge6" class="edge">
<title>n_github_com_alajmo_mani_core_print:e&#45;&gt;n_github_com_alajmo_mani_core</title>
<path fill="none" stroke="#073291" stroke-width="2" stroke-opacity="0.698039" d="M864,-18C992.1735,-18 1024.4728,-20.1449 1152,-33 1184.0605,-36.2318 1219.1397,-41.1729 1249.7459,-45.9489"/>
<polygon fill="#073291" fill-opacity="0.698039" stroke="#073291" stroke-width="2" stroke-opacity="0.698039" points="1249.5194,-49.4565 1259.943,-47.5595 1250.6116,-42.5422 1249.5194,-49.4565"/>
</g>
<!-- n_github_com_alajmo_mani_core_print&#45;&gt;n_github_com_alajmo_mani_core_dao -->
<g id="edge7" class="edge">
<title>n_github_com_alajmo_mani_core_print:e&#45;&gt;n_github_com_alajmo_mani_core_dao</title>
<path fill="none" stroke="#07912e" stroke-width="2" stroke-opacity="0.698039" d="M864,-18C909.1602,-18 958.8779,-28.5848 997.196,-39.1269"/>
<polygon fill="#07912e" fill-opacity="0.698039" stroke="#07912e" stroke-width="2" stroke-opacity="0.698039" points="996.6094,-42.5979 1007.1841,-41.9445 998.5099,-35.8609 996.6094,-42.5979"/>
</g>
<!-- n_github_com_alajmo_mani_test_integration -->
<g id="node6" class="node">
<title>n_github_com_alajmo_mani_test_integration</title>
<g id="a_node6"><a xlink:href="https://pkg.go.dev/github.com/alajmo/mani/test/integration" xlink:title="github.com/alajmo/mani/test/integration\l0 / 0B\l" target="_graphviz">
<polygon fill="none" stroke="#075f91" stroke-width="2" stroke-opacity="0.698039" points="270,-136 54,-136 54,-100 270,-100 270,-136"/>
<text text-anchor="start" x="62" y="-121" font-family="Times,serif" font-size="10.00" fill="#000000">github.com/alajmo/mani/test/integration</text>
<text text-anchor="start" x="62" y="-110" font-family="Times,serif" font-size="10.00" fill="#000000">0 / 0B</text>
</a>
</g>
</g>
<!-- n_github_com_alajmo_mani_test_playground_frontend_pinto_bin_templates_go -->
<g id="node7" class="node">
<title>n_github_com_alajmo_mani_test_playground_frontend_pinto_bin_templates_go</title>
<g id="a_node7"><a xlink:href="https://pkg.go.dev/github.com/alajmo/mani/test/playground/frontend/pinto/bin/templates/go" xlink:title="github.com/alajmo/mani/test/playground/frontend/pinto/bin/templates/go\l158 / 4.1KB\l" target="_graphviz">
<polygon fill="none" stroke="#070891" stroke-width="2" stroke-opacity="0.698039" points="324,-190 0,-190 0,-154 324,-154 324,-190"/>
<text text-anchor="start" x="8" y="-175" font-family="Times,serif" font-size="10.00" fill="#000000">github.com/alajmo/mani/test/playground/frontend/pinto/bin/templates/go</text>
<text text-anchor="start" x="8" y="-164" font-family="Times,serif" font-size="10.00" fill="#000000">158 / 4.1KB</text>
</a>
</g>
</g>
</g>
</svg>
