<?xml version="1.0" encoding="UTF-8" standalone="no"?>
<!DOCTYPE svg PUBLIC "-//W3C//DTD SVG 1.1//EN"
 "http://www.w3.org/Graphics/SVG/1.1/DTD/svg11.dtd">
<!-- Generated by graphviz version 2.43.0 (0)
 -->
<!-- Title: G Pages: 1 -->
<svg width="1700pt" height="151pt"
 viewBox="0.00 0.00 1700.00 150.72" xmlns="http://www.w3.org/2000/svg" xmlns:xlink="http://www.w3.org/1999/xlink">
<g id="graph0" class="graph" transform="scale(1 1) rotate(0) translate(4 146.72)">
<title>G</title>
<polygon fill="white" stroke="transparent" points="-4,4 -4,-146.72 1696,-146.72 1696,4 -4,4"/>
<!-- github.com/alajmo/sake -->
<g id="node1" class="node">
<title>github.com/alajmo/sake</title>
<g id="a_node1"><a xlink:href="https://pkg.go.dev/github.com/alajmo/sake" xlink:title="github.com/alajmo/sake\l7 / 87B\l" target="_graphviz">
<polygon fill="none" stroke="#079123" stroke-width="2" stroke-opacity="0.698039" points="144,-128 0,-128 0,-92 144,-92 144,-128"/>
<text text-anchor="start" x="8" y="-113" font-family="Times,serif" font-size="10.00">github.com/alajmo/sake</text>
<text text-anchor="start" x="8" y="-102" font-family="Times,serif" font-size="10.00">7 / 87B</text>
</a>
</g>
</g>
<!-- github.com/alajmo/sake/cmd -->
<g id="node2" class="node">
<title>github.com/alajmo/sake/cmd</title>
<g id="a_node2"><a xlink:href="https://pkg.go.dev/github.com/alajmo/sake/cmd" xlink:title="github.com/alajmo/sake/cmd\l1044 / 34.5KB\l" target="_graphviz">
<polygon fill="none" stroke="#809107" stroke-width="2" stroke-opacity="0.698039" points="432,-128 252,-128 252,-92 432,-92 432,-128"/>
<text text-anchor="start" x="260" y="-113" font-family="Times,serif" font-size="10.00">github.com/alajmo/sake/cmd</text>
<text text-anchor="start" x="260" y="-102" font-family="Times,serif" font-size="10.00">1044 / 34.5KB</text>
</a>
</g>
</g>
<!-- github.com/alajmo/sake&#45;&gt;github.com/alajmo/sake/cmd -->
<g id="edge1" class="edge">
<title>github.com/alajmo/sake:e&#45;&gt;github.com/alajmo/sake/cmd</title>
<path fill="none" stroke="#809107" stroke-width="2" stroke-opacity="0.698039" d="M144,-110C175.79,-110 210.46,-110 241.73,-110"/>
<polygon fill="#809107" fill-opacity="0.698039" stroke="#809107" stroke-width="2" stroke-opacity="0.698039" points="241.76,-113.5 251.76,-110 241.76,-106.5 241.76,-113.5"/>
</g>
<!-- github.com/alajmo/sake/core -->
<g id="node3" class="node">
<title>github.com/alajmo/sake/core</title>
<g id="a_node3"><a xlink:href="https://pkg.go.dev/github.com/alajmo/sake/core" xlink:title="github.com/alajmo/sake/core\l669 / 16.3KB\l" target="_graphviz">
<polygon fill="none" stroke="#078c91" stroke-width="2" stroke-opacity="0.698039" points="1692,-105 1512,-105 1512,-69 1692,-69 1692,-105"/>
<text text-anchor="start" x="1520" y="-90" font-family="Times,serif" font-size="10.00">github.com/alajmo/sake/core</text>
<text text-anchor="start" x="1520" y="-79" font-family="Times,serif" font-size="10.00">669 / 16.3KB</text>
</a>
</g>
</g>
<!-- github.com/alajmo/sake/cmd&#45;&gt;github.com/alajmo/sake/core -->
<g id="edge2" class="edge">
<title>github.com/alajmo/sake/cmd:e&#45;&gt;github.com/alajmo/sake/core</title>
<path fill="none" stroke="#078c91" stroke-width="2" stroke-opacity="0.698039" d="M432,-110C480.66,-110 491.53,-123.65 540,-128 826.87,-153.75 899.98,-135 1188,-137 1284,-137.67 1308.74,-148.9 1404,-137 1448.52,-131.44 1497.4,-119.07 1535.34,-108.03"/>
<polygon fill="#078c91" fill-opacity="0.698039" stroke="#078c91" stroke-width="2" stroke-opacity="0.698039" points="1536.64,-111.29 1545.24,-105.1 1534.66,-104.58 1536.64,-111.29"/>
</g>
<!-- github.com/alajmo/sake/core/dao -->
<g id="node4" class="node">
<title>github.com/alajmo/sake/core/dao</title>
<g id="a_node4"><a xlink:href="https://pkg.go.dev/github.com/alajmo/sake/core/dao" xlink:title="github.com/alajmo/sake/core/dao\l2882 / 81.1KB\l" target="_graphviz">
<polygon fill="none" stroke="#07915c" stroke-width="2" stroke-opacity="0.698039" points="1404,-128 1188,-128 1188,-92 1404,-92 1404,-128"/>
<text text-anchor="start" x="1196" y="-113" font-family="Times,serif" font-size="10.00">github.com/alajmo/sake/core/dao</text>
<text text-anchor="start" x="1196" y="-102" font-family="Times,serif" font-size="10.00">2882 / 81.1KB</text>
</a>
</g>
</g>
<!-- github.com/alajmo/sake/cmd&#45;&gt;github.com/alajmo/sake/core/dao -->
<g id="edge3" class="edge">
<title>github.com/alajmo/sake/cmd:e&#45;&gt;github.com/alajmo/sake/core/dao</title>
<path fill="none" stroke="#07915c" stroke-width="2" stroke-opacity="0.698039" d="M432,-110C480.03,-110 491.98,-113.11 540,-114 765.64,-118.18 1029.27,-114.93 1177.73,-112.35"/>
<polygon fill="#07915c" fill-opacity="0.698039" stroke="#07915c" stroke-width="2" stroke-opacity="0.698039" points="1177.84,-115.85 1187.78,-112.17 1177.72,-108.85 1177.84,-115.85"/>
</g>
<!-- github.com/alajmo/sake/core/print -->
<g id="node5" class="node">
<title>github.com/alajmo/sake/core/print</title>
<g id="a_node5"><a xlink:href="https://pkg.go.dev/github.com/alajmo/sake/core/print" xlink:title="github.com/alajmo/sake/core/print\l446 / 13.4KB\l" target="_graphviz">
<polygon fill="none" stroke="#469107" stroke-width="2" stroke-opacity="0.698039" points="1080,-36 864,-36 864,0 1080,0 1080,-36"/>
<text text-anchor="start" x="872" y="-21" font-family="Times,serif" font-size="10.00">github.com/alajmo/sake/core/print</text>
<text text-anchor="start" x="872" y="-10" font-family="Times,serif" font-size="10.00">446 / 13.4KB</text>
</a>
</g>
</g>
<!-- github.com/alajmo/sake/cmd&#45;&gt;github.com/alajmo/sake/core/print -->
<g id="edge4" class="edge">
<title>github.com/alajmo/sake/cmd:e&#45;&gt;github.com/alajmo/sake/core/print</title>
<path fill="none" stroke="#469107" stroke-width="2" stroke-opacity="0.698039" d="M432,-110C484.89,-110 488.96,-73.87 540,-60 643.63,-31.84 765.81,-22.03 853.56,-18.86"/>
<polygon fill="#469107" fill-opacity="0.698039" stroke="#469107" stroke-width="2" stroke-opacity="0.698039" points="853.94,-22.34 863.82,-18.51 853.71,-15.35 853.94,-22.34"/>
</g>
<!-- github.com/alajmo/sake/core/run -->
<g id="node6" class="node">
<title>github.com/alajmo/sake/core/run</title>
<g id="a_node6"><a xlink:href="https://pkg.go.dev/github.com/alajmo/sake/core/run" xlink:title="github.com/alajmo/sake/core/run\l1213 / 32.3KB\l" target="_graphviz">
<polygon fill="none" stroke="#073491" stroke-width="2" stroke-opacity="0.698039" points="756,-105 540,-105 540,-69 756,-69 756,-105"/>
<text text-anchor="start" x="548" y="-90" font-family="Times,serif" font-size="10.00">github.com/alajmo/sake/core/run</text>
<text text-anchor="start" x="548" y="-79" font-family="Times,serif" font-size="10.00">1213 / 32.3KB</text>
</a>
</g>
</g>
<!-- github.com/alajmo/sake/cmd&#45;&gt;github.com/alajmo/sake/core/run -->
<g id="edge5" class="edge">
<title>github.com/alajmo/sake/cmd:e&#45;&gt;github.com/alajmo/sake/core/run</title>
<path fill="none" stroke="#073491" stroke-width="2" stroke-opacity="0.698039" d="M432,-110C463.76,-110 498,-107.49 529.62,-104.13"/>
<polygon fill="#073491" fill-opacity="0.698039" stroke="#073491" stroke-width="2" stroke-opacity="0.698039" points="530.24,-107.58 539.79,-103.01 529.47,-100.62 530.24,-107.58"/>
</g>
<!-- github.com/alajmo/sake/core/dao&#45;&gt;github.com/alajmo/sake/core -->
<g id="edge6" class="edge">
<title>github.com/alajmo/sake/core/dao:e&#45;&gt;github.com/alajmo/sake/core</title>
<path fill="none" stroke="#078c91" stroke-width="2" stroke-opacity="0.698039" d="M1404,-110C1435.85,-110 1470.4,-107 1501.54,-103.16"/>
<polygon fill="#078c91" fill-opacity="0.698039" stroke="#078c91" stroke-width="2" stroke-opacity="0.698039" points="1502.05,-106.63 1511.52,-101.89 1501.16,-99.68 1502.05,-106.63"/>
</g>
<!-- github.com/alajmo/sake/core/print&#45;&gt;github.com/alajmo/sake/core -->
<g id="edge7" class="edge">
<title>github.com/alajmo/sake/core/print:e&#45;&gt;github.com/alajmo/sake/core</title>
<path fill="none" stroke="#078c91" stroke-width="2" stroke-opacity="0.698039" d="M1080,-18C1230.48,-18 1403.32,-46.64 1507.24,-67.02"/>
<polygon fill="#078c91" fill-opacity="0.698039" stroke="#078c91" stroke-width="2" stroke-opacity="0.698039" points="1506.59,-70.46 1517.08,-68.96 1507.95,-63.59 1506.59,-70.46"/>
</g>
<!-- github.com/alajmo/sake/core/print&#45;&gt;github.com/alajmo/sake/core/dao -->
<g id="edge8" class="edge">
<title>github.com/alajmo/sake/core/print:e&#45;&gt;github.com/alajmo/sake/core/dao</title>
<path fill="none" stroke="#07915c" stroke-width="2" stroke-opacity="0.698039" d="M1080,-18C1149.22,-18 1221.6,-58.8 1262.23,-86.06"/>
<polygon fill="#07915c" fill-opacity="0.698039" stroke="#07915c" stroke-width="2" stroke-opacity="0.698039" points="1260.42,-89.06 1270.65,-91.82 1264.37,-83.29 1260.42,-89.06"/>
</g>
<!-- github.com/alajmo/sake/core/run&#45;&gt;github.com/alajmo/sake/core -->
<g id="edge9" class="edge">
<title>github.com/alajmo/sake/core/run:e&#45;&gt;github.com/alajmo/sake/core</title>
<path fill="none" stroke="#078c91" stroke-width="2" stroke-opacity="0.698039" d="M756,-87C804.02,-87 815.99,-84.74 864,-84 1103.97,-80.3 1164.01,-80.56 1404,-83 1435.79,-83.32 1470.47,-83.94 1501.74,-84.59"/>
<polygon fill="#078c91" fill-opacity="0.698039" stroke="#078c91" stroke-width="2" stroke-opacity="0.698039" points="1501.69,-88.09 1511.76,-84.8 1501.84,-81.09 1501.69,-88.09"/>
</g>
<!-- github.com/alajmo/sake/core/run&#45;&gt;github.com/alajmo/sake/core/dao -->
<g id="edge10" class="edge">
<title>github.com/alajmo/sake/core/run:e&#45;&gt;github.com/alajmo/sake/core/dao</title>
<path fill="none" stroke="#07915c" stroke-width="2" stroke-opacity="0.698039" d="M756,-87C901.44,-87 1068.74,-95.46 1177.88,-102.12"/>
<polygon fill="#07915c" fill-opacity="0.698039" stroke="#07915c" stroke-width="2" stroke-opacity="0.698039" points="1177.74,-105.62 1187.93,-102.74 1178.17,-98.63 1177.74,-105.62"/>
</g>
<!-- github.com/alajmo/sake/core/run&#45;&gt;github.com/alajmo/sake/core/print -->
<g id="edge11" class="edge">
<title>github.com/alajmo/sake/core/run:e&#45;&gt;github.com/alajmo/sake/core/print</title>
<path fill="none" stroke="#469107" stroke-width="2" stroke-opacity="0.698039" d="M756,-87C806.74,-87 815.68,-65.49 864,-50 875.4,-46.35 887.52,-42.59 899.35,-39"/>
<polygon fill="#469107" fill-opacity="0.698039" stroke="#469107" stroke-width="2" stroke-opacity="0.698039" points="900.64,-42.27 909.2,-36.03 898.61,-35.57 900.64,-42.27"/>
</g>
</g>
</svg>
