<svg version="1.1" xmlns="http://www.w3.org/2000/svg" viewBox="0 0 383 459" width="383" height="459">
  <!-- svg-source:excalidraw -->
  
  <defs>
    <style class="style-fonts">
      @font-face {
        font-family: "Virgil";
        src: url("https://excalidraw.com/Virgil.woff2");
      }
      @font-face {
        font-family: "Cascadia";
        src: url("https://excalidraw.com/Cascadia.woff2");
      }
    </style>
  </defs>
  <rect x="0" y="0" width="383" height="459" fill="#ffffff"></rect><g stroke-linecap="round" transform="translate(59.25 288) rotate(0 18 18)"><path d="M0 0 C13.49 0, 26.98 0, 36 0 M0 0 C12.02 0, 24.05 0, 36 0 M36 0 C36 8.95, 36 17.89, 36 36 M36 0 C36 8.01, 36 16.02, 36 36 M36 36 C24.46 36, 12.91 36, 0 36 M36 36 C25.28 36, 14.57 36, 0 36 M0 36 C0 21.95, 0 7.9, 0 0 M0 36 C0 25.18, 0 14.37, 0 0" stroke="#000000" stroke-width="1" fill="none"></path></g><g transform="translate(64.25 296) rotate(0 13 10)"><text x="13" y="14" font-family="Virgil, Segoe UI Emoji" font-size="16px" fill="#000000" text-anchor="middle" style="white-space: pre;" direction="ltr">T2</text></g><g stroke-linecap="round" transform="translate(175.5 286.75) rotate(0 18 18)"><path d="M0 0 C9.01 0, 18.03 0, 36 0 M0 0 C8.2 0, 16.4 0, 36 0 M36 0 C36 10.2, 36 20.39, 36 36 M36 0 C36 13.23, 36 26.45, 36 36 M36 36 C21.86 36, 7.72 36, 0 36 M36 36 C22.97 36, 9.93 36, 0 36 M0 36 C0 28.25, 0 20.51, 0 0 M0 36 C0 24.58, 0 13.16, 0 0" stroke="#000000" stroke-width="1" fill="none"></path></g><g transform="translate(180.5 294.75) rotate(0 13 10)"><text x="13" y="14" font-family="Virgil, Segoe UI Emoji" font-size="16px" fill="#000000" text-anchor="middle" style="white-space: pre;" direction="ltr">T2</text></g><g stroke-linecap="round" transform="translate(291.75 285.5) rotate(0 18 18)"><path d="M0 0 C14.3 0, 28.59 0, 36 0 M0 0 C12.12 0, 24.24 0, 36 0 M36 0 C36 13.03, 36 26.06, 36 36 M36 0 C36 10.75, 36 21.49, 36 36 M36 36 C25.45 36, 14.9 36, 0 36 M36 36 C23.88 36, 11.77 36, 0 36 M0 36 C0 28.42, 0 20.84, 0 0 M0 36 C0 27.93, 0 19.87, 0 0" stroke="#000000" stroke-width="1" fill="none"></path></g><g transform="translate(296.75 293.5) rotate(0 13 10)"><text x="13" y="14" font-family="Virgil, Segoe UI Emoji" font-size="16px" fill="#000000" text-anchor="middle" style="white-space: pre;" direction="ltr">T2</text></g><g stroke-linecap="round" transform="translate(59.25 393.5) rotate(0 18 18)"><path d="M0 0 C7.89 0, 15.78 0, 36 0 M0 0 C9.97 0, 19.94 0, 36 0 M36 0 C36 11.53, 36 23.05, 36 36 M36 0 C36 7.21, 36 14.41, 36 36 M36 36 C22.26 36, 8.53 36, 0 36 M36 36 C22.97 36, 9.94 36, 0 36 M0 36 C0 28.46, 0 20.91, 0 0 M0 36 C0 24.71, 0 13.43, 0 0" stroke="#000000" stroke-width="1" fill="none"></path></g><g transform="translate(64.25 401.5) rotate(0 13 10)"><text x="13" y="14" font-family="Virgil, Segoe UI Emoji" font-size="16px" fill="#000000" text-anchor="middle" style="white-space: pre;" direction="ltr">T3</text></g><g stroke-linecap="round" transform="translate(175.5 392.25) rotate(0 18 18)"><path d="M0 0 C10.04 0, 20.08 0, 36 0 M0 0 C10.26 0, 20.52 0, 36 0 M36 0 C36 12.3, 36 24.59, 36 36 M36 0 C36 8.66, 36 17.33, 36 36 M36 36 C22.81 36, 9.61 36, 0 36 M36 36 C22.16 36, 8.32 36, 0 36 M0 36 C0 28.34, 0 20.69, 0 0 M0 36 C0 22.81, 0 9.63, 0 0" stroke="#000000" stroke-width="1" fill="none"></path></g><g transform="translate(180.5 400.25) rotate(0 13 10)"><text x="13" y="14" font-family="Virgil, Segoe UI Emoji" font-size="16px" fill="#000000" text-anchor="middle" style="white-space: pre;" direction="ltr">T3</text></g><g stroke-linecap="round" transform="translate(291.75 391) rotate(0 18 18)"><path d="M0 0 C8.07 0, 16.14 0, 36 0 M0 0 C7.9 0, 15.8 0, 36 0 M36 0 C36 13.24, 36 26.48, 36 36 M36 0 C36 11.68, 36 23.36, 36 36 M36 36 C24.22 36, 12.44 36, 0 36 M36 36 C27.74 36, 19.48 36, 0 36 M0 36 C0 26.59, 0 17.19, 0 0 M0 36 C0 25.7, 0 15.39, 0 0" stroke="#000000" stroke-width="1" fill="none"></path></g><g transform="translate(296.75 399) rotate(0 13 10)"><text x="13" y="14" font-family="Virgil, Segoe UI Emoji" font-size="16px" fill="#000000" text-anchor="middle" style="white-space: pre;" direction="ltr">T3</text></g><g stroke-linecap="round" transform="translate(59.25 182.5) rotate(0 18 18)"><path d="M0 0 C11.58 0, 23.16 0, 36 0 M0 0 C10.55 0, 21.11 0, 36 0 M36 0 C36 13.65, 36 27.31, 36 36 M36 0 C36 12.42, 36 24.83, 36 36 M36 36 C24.55 36, 13.09 36, 0 36 M36 36 C22.32 36, 8.65 36, 0 36 M0 36 C0 24.35, 0 12.7, 0 0 M0 36 C0 27.45, 0 18.9, 0 0" stroke="#000000" stroke-width="1" fill="none"></path></g><g transform="translate(67.75 190.5) rotate(0 9.5 10)"><text x="9.5" y="14" font-family="Virgil, Segoe UI Emoji" font-size="16px" fill="#000000" text-anchor="middle" style="white-space: pre;" direction="ltr">T1</text></g><g stroke-linecap="round" transform="translate(175.5 181.25) rotate(0 18 18)"><path d="M0 0 C8.14 0, 16.28 0, 36 0 M0 0 C12.16 0, 24.32 0, 36 0 M36 0 C36 9.22, 36 18.44, 36 36 M36 0 C36 7.53, 36 15.06, 36 36 M36 36 C23.77 36, 11.53 36, 0 36 M36 36 C25.28 36, 14.57 36, 0 36 M0 36 C0 27.7, 0 19.4, 0 0 M0 36 C0 22.47, 0 8.95, 0 0" stroke="#000000" stroke-width="1" fill="none"></path></g><g transform="translate(184 189.25) rotate(0 9.5 10)"><text x="9.5" y="14" font-family="Virgil, Segoe UI Emoji" font-size="16px" fill="#000000" text-anchor="middle" style="white-space: pre;" direction="ltr">T1</text></g><g stroke-linecap="round" transform="translate(291.75 180) rotate(0 18 18)"><path d="M0 0 C7.44 0, 14.89 0, 36 0 M0 0 C11.54 0, 23.07 0, 36 0 M36 0 C36 14.28, 36 28.55, 36 36 M36 0 C36 7.29, 36 14.58, 36 36 M36 36 C28.63 36, 21.26 36, 0 36 M36 36 C28.54 36, 21.08 36, 0 36 M0 36 C0 25.2, 0 14.41, 0 0 M0 36 C0 23.64, 0 11.29, 0 0" stroke="#000000" stroke-width="1" fill="none"></path></g><g transform="translate(300.25 188) rotate(0 9.5 10)"><text x="9.5" y="14" font-family="Virgil, Segoe UI Emoji" font-size="16px" fill="#000000" text-anchor="middle" style="white-space: pre;" direction="ltr">T1</text></g><g stroke-linecap="round" transform="translate(10 160.5) rotate(0 181.5 36.5)"><path d="M0 0 C142.13 0, 284.25 0, 363 0 M363 0 C363 28.89, 363 57.79, 363 73 M363 73 C226.57 73, 90.14 73, 0 73 M0 73 C0 46.81, 0 20.62, 0 0" stroke="#000000" stroke-width="1.5" fill="none" stroke-dasharray="8 9"></path></g><g stroke-linecap="round" transform="translate(10 268.25) rotate(0 181.5 36.5)"><path d="M0 0 C97.7 0, 195.39 0, 363 0 M363 0 C363 25.04, 363 50.07, 363 73 M363 73 C220.18 73, 77.36 73, 0 73 M0 73 C0 52.07, 0 31.14, 0 0" stroke="#000000" stroke-width="1.5" fill="none" stroke-dasharray="8 9"></path></g><g stroke-linecap="round" transform="translate(10 376) rotate(0 181.5 36.5)"><path d="M0 0 C126.13 0, 252.25 0, 363 0 M363 0 C363 26.6, 363 53.21, 363 73 M363 73 C244.84 73, 126.69 73, 0 73 M0 73 C0 45.52, 0 18.05, 0 0" stroke="#000000" stroke-width="1.5" fill="none" stroke-dasharray="8 9"></path></g><g stroke-linecap="round" transform="translate(54.25 78.75) rotate(0 27.5 25)"><path d="M0 0 C12.71 0, 25.41 0, 55 0 M0 0 C18.44 0, 36.88 0, 55 0 M55 0 C55 14.39, 55 28.79, 55 50 M55 0 C55 19.69, 55 39.37, 55 50 M55 50 C39.6 50, 24.21 50, 0 50 M55 50 C41.87 50, 28.73 50, 0 50 M0 50 C0 31.25, 0 12.5, 0 0 M0 50 C0 30.83, 0 11.66, 0 0" stroke="#000000" stroke-width="1" fill="none"></path></g><g stroke-linecap="round" transform="translate(169 78.75) rotate(0 27.5 25)"><path d="M0 0 C19.69 0, 39.37 0, 55 0 M0 0 C15.24 0, 30.47 0, 55 0 M55 0 C55 19.93, 55 39.86, 55 50 M55 0 C55 10.59, 55 21.17, 55 50 M55 50 C43.14 50, 31.28 50, 0 50 M55 50 C37.68 50, 20.37 50, 0 50 M0 50 C0 36.26, 0 22.51, 0 0 M0 50 C0 39.37, 0 28.75, 0 0" stroke="#000000" stroke-width="1" fill="none"></path></g><g stroke-linecap="round" transform="translate(283.75 78.75) rotate(0 27.5 25)"><path d="M0 0 C12.44 0, 24.88 0, 55 0 M0 0 C19.86 0, 39.73 0, 55 0 M55 0 C55 12.65, 55 25.31, 55 50 M55 0 C55 12.97, 55 25.94, 55 50 M55 50 C43.57 50, 32.14 50, 0 50 M55 50 C33.69 50, 12.38 50, 0 50 M0 50 C0 36.42, 0 22.83, 0 0 M0 50 C0 31.89, 0 13.79, 0 0" stroke="#000000" stroke-width="1" fill="none"></path></g><g transform="translate(71.75 91.25) rotate(0 10 12.5)"><text x="10" y="18" font-family="Virgil, Segoe UI Emoji" font-size="20px" fill="#000000" text-anchor="middle" style="white-space: pre;" direction="ltr">S1</text></g><g transform="translate(182.5 91.25) rotate(0 14 12.5)"><text x="14" y="18" font-family="Virgil, Segoe UI Emoji" font-size="20px" fill="#000000" text-anchor="middle" style="white-space: pre;" direction="ltr">S2</text></g><g transform="translate(297.25 91.25) rotate(0 14 12.5)"><text x="14" y="18" font-family="Virgil, Segoe UI Emoji" font-size="20px" fill="#000000" text-anchor="middle" style="white-space: pre;" direction="ltr">S3</text></g><g transform="translate(163 10) rotate(0 37.5 17.5)"><text x="0" y="25" font-family="Virgil, Segoe UI Emoji" font-size="28px" fill="#000000" text-anchor="start" style="white-space: pre;" direction="ltr">linear</text></g></svg>