<?xml version="1.0" encoding="UTF-8" standalone="no"?>
<!-- Created with Inkscape (http://www.inkscape.org/) -->

<svg
   width="65.616669mm"
   height="56.797222mm"
   viewBox="0 0 65.616669 56.797222"
   version="1.1"
   id="svg5"
   sodipodi:docname="logo.svg"
   inkscape:version="1.1.2 (0a00cf5, 2022-02-04)"
   inkscape:export-filename="/home/samir/projects/doc/sake/static/img/logoz.png"
   inkscape:export-xdpi="96"
   inkscape:export-ydpi="96"
   xmlns:inkscape="http://www.inkscape.org/namespaces/inkscape"
   xmlns:sodipodi="http://sodipodi.sourceforge.net/DTD/sodipodi-0.dtd"
   xmlns="http://www.w3.org/2000/svg"
   xmlns:svg="http://www.w3.org/2000/svg">
  <sodipodi:namedview
     id="namedview7"
     pagecolor="#ffffff"
     bordercolor="#666666"
     borderopacity="1.0"
     inkscape:pageshadow="2"
     inkscape:pageopacity="0.0"
     inkscape:pagecheckerboard="0"
     inkscape:document-units="mm"
     showgrid="false"
     inkscape:zoom="2.9291246"
     inkscape:cx="57.013621"
     inkscape:cy="100.54198"
     inkscape:window-width="1920"
     inkscape:window-height="1038"
     inkscape:window-x="0"
     inkscape:window-y="42"
     inkscape:window-maximized="1"
     inkscape:current-layer="g529"
     fit-margin-top="0"
     fit-margin-left="0"
     fit-margin-right="0"
     fit-margin-bottom="0" />
  <defs
     id="defs2" />
  <g
     inkscape:label="Layer 1"
     inkscape:groupmode="layer"
     id="layer1"
     transform="translate(-122.94469,-25.483207)">
    <g
       id="g529"
       transform="translate(32.183681,-23.439351)">
      <path
         style="fill:#242526;stroke-width:0.352778;fill-opacity:1"
         d="m 110.35491,101.75103 c -0.1065,-0.63059 -0.75272,-5.512153 -1.43605,-10.847917 -0.68333,-5.335763 -1.48459,-11.108836 -1.78058,-12.829049 -0.29598,-1.720214 -0.47605,-3.18976 -0.40015,-3.265659 0.0759,-0.0759 0.81311,0.351053 1.63825,0.948783 0.82514,0.597729 1.57014,1.016897 1.65555,0.931484 0.0854,-0.08541 -0.55126,-0.930542 -1.41484,-1.878066 -1.01605,-1.114823 -1.68616,-1.598279 -1.89893,-1.369993 -0.18083,0.194028 -1.15977,5.432778 -2.17543,11.641667 -2.11386,12.922437 -2.13471,13.027611 -2.506,12.637636 -0.31736,-0.333326 2.52731,-27.226496 2.95066,-27.895275 0.47166,-0.745093 0.80729,-0.513364 2.21338,1.528224 0.74593,1.083059 1.41271,1.757746 1.48173,1.499306 0.069,-0.25844 0.25656,-0.886412 0.41674,-1.395493 0.24922,-0.792064 -0.0795,-1.499889 -2.27862,-4.906162 -2.22632,-3.44843 -2.61718,-3.890614 -2.92386,-3.307731 -0.42171,0.801535 -9.477544,21.626897 -9.986607,22.965833 -0.220857,0.580898 -0.477587,0.804387 -0.685358,0.596615 -0.207772,-0.207772 1.622266,-5.285655 4.885417,-13.555775 5.836668,-14.792437 6.134478,-15.507456 6.458928,-15.507456 0.12669,0 1.29334,2.659063 2.59255,5.909028 1.29921,3.249965 2.42972,5.978088 2.51224,6.062494 0.0825,0.08441 0.7767,-0.458456 1.54262,-1.206361 l 1.39259,-1.359828 -1.31087,-2.497805 c -0.72098,-1.373793 -1.39548,-2.57718 -1.49889,-2.674194 -0.31994,-0.300155 -3.315,-5.415021 -3.74514,-6.395844 -0.22379,-0.510284 -0.5507,-1.01667 -0.72647,-1.125302 -0.17577,-0.108631 -2.81712,2.785514 -5.869658,6.431436 -5.679062,6.783011 -7.499823,8.754582 -7.804007,8.450398 -0.09493,-0.09493 3.026679,-4.481807 6.936906,-9.748619 l 7.109499,-9.576022 3.71508,8.302331 c 4.16751,9.313416 3.43151,8.591074 7.27459,7.139578 1.80358,-0.681198 2.795,-0.799445 6.70277,-0.799445 3.90777,0 4.8992,0.118247 6.70278,0.799445 3.84308,1.451496 3.10708,2.173838 7.27459,-7.139578 l 3.71508,-8.302331 7.1095,9.576022 c 3.91023,5.266812 7.03183,9.653691 6.9369,9.748619 -0.30418,0.304184 -2.12494,-1.667387 -7.804,-8.450398 -3.05255,-3.645922 -5.69389,-6.540067 -5.86966,-6.431436 -0.17577,0.108632 -0.50268,0.615018 -0.72647,1.125302 -0.43014,0.980823 -3.4252,6.095689 -3.74514,6.395844 -0.10341,0.09701 -0.77791,1.300401 -1.49889,2.674194 l -1.31087,2.497805 1.39259,1.359828 c 0.76592,0.747905 1.4601,1.290768 1.54262,1.206361 0.0825,-0.08441 1.21302,-2.812529 2.51224,-6.062494 1.29922,-3.249965 2.46586,-5.909028 2.59255,-5.909028 0.32445,0 0.62226,0.715019 6.45893,15.507456 3.26315,8.27012 5.09319,13.348003 4.88541,13.555775 -0.20777,0.207772 -0.4645,-0.01573 -0.68535,-0.596615 -0.50907,-1.338936 -9.5649,-22.164298 -9.98661,-22.965833 -0.30668,-0.582883 -0.69755,-0.140699 -2.92386,3.307731 -2.1991,3.406273 -2.52784,4.114098 -2.27862,4.906162 0.16018,0.509081 0.34771,1.137053 0.41674,1.395493 0.069,0.25844 0.7358,-0.416247 1.48173,-1.499306 1.40609,-2.041588 1.74171,-2.273317 2.21337,-1.528224 0.42336,0.668779 3.26803,27.561949 2.95067,27.895275 -0.37129,0.389975 -0.39214,0.284801 -2.506,-12.637636 -1.01566,-6.208889 -1.9946,-11.447639 -2.17544,-11.641667 -0.21276,-0.228286 -0.88287,0.25517 -1.89892,1.369993 -0.86358,0.947524 -1.50026,1.792654 -1.41484,1.878066 0.0854,0.08541 0.83041,-0.333755 1.65555,-0.931484 0.82514,-0.59773 1.56235,-1.024682 1.63825,-0.948783 0.0759,0.0759 -0.10464,1.545445 -0.4012,3.265659 -0.29656,1.720213 -1.16371,7.942252 -1.92699,13.826754 -0.76328,5.884503 -1.48985,10.801152 -1.61459,10.925892 -0.39012,0.39013 -0.85507,-0.73526 -0.69261,-1.67643 0.26281,-1.522496 2.62084,-21.601597 2.62084,-22.317001 0,-0.60179 -0.17819,-0.647922 -1.67569,-0.433825 -0.92163,0.131764 -2.15195,0.518773 -2.73403,0.860019 -2.87601,1.686061 -5.47003,2.258792 -10.23056,2.258792 -4.76052,0 -7.35454,-0.572731 -10.23055,-2.258792 -0.58208,-0.341246 -1.8124,-0.728255 -2.73403,-0.860019 -1.58659,-0.226833 -1.67516,-0.196217 -1.66565,0.575794 0.006,0.448451 0.61823,5.81599 1.36157,11.927865 0.74334,6.111875 1.27746,11.310937 1.18693,11.553477 -0.29854,0.79986 -0.75951,0.45976 -0.95631,-0.70556 z"
         id="path531"
         sodipodi:nodetypes="sscssssccssscsccssssscscsscscsccssssscssssssscscsssssssscsssssscsssssssssssscscs" />
      <ellipse
         style="fill:#ffffff;stroke-width:0.313597"
         id="path4339"
         cx="118.067"
         cy="73.060593"
         rx="4.3500757"
         ry="4.1204309" />
      <ellipse
         style="fill:#ffffff;stroke-width:0.313597"
         id="path4339-3"
         cx="128.71396"
         cy="73.373886"
         rx="4.3500757"
         ry="4.1204309" />
      <ellipse
         style="fill:#242526;stroke-width:0.264583;fill-opacity:1"
         id="path5077"
         cx="117.73089"
         cy="73.233536"
         rx="0.93641907"
         ry="0.97026747" />
      <ellipse
         style="fill:#242526;stroke-width:0.264583;fill-opacity:1"
         id="path5077-6"
         cx="128.57373"
         cy="73.365181"
         rx="0.93641907"
         ry="0.97026747" />
    </g>
  </g>
</svg>
